<svg width="188" height="40" viewBox="0 0 188 40" fill="none" xmlns="http://www.w3.org/2000/svg">
<g clip-path="url(#clip0_968_574)">
<path d="M61.1336 31.8655C60.1908 31.9177 59.2581 31.6439 58.4862 31.0884C58.1636 30.8443 57.9041 30.5236 57.7302 30.1541C57.5562 29.7846 57.4728 29.3773 57.4875 28.9676V13.9603C57.4798 13.8967 57.4864 13.8322 57.5068 13.7716C57.5271 13.7111 57.5608 13.6562 57.6051 13.6109C57.6494 13.5656 57.7033 13.5313 57.7626 13.5104C57.8219 13.4896 57.8851 13.4829 57.9472 13.4907H60.6105C60.9117 13.4907 61.0544 13.6527 61.0544 13.9603V27.802C61.0544 28.4172 61.3239 28.7248 61.8787 28.7248C62.1139 28.7347 62.3492 28.7074 62.5763 28.6439C62.8933 28.6439 63.0677 28.7409 63.0836 29.0324L63.3213 31.056C63.3327 31.115 63.3317 31.1759 63.3182 31.2344C63.3046 31.2929 63.279 31.3478 63.2429 31.3954C63.2069 31.4429 63.1613 31.4821 63.1092 31.5101C63.0571 31.5381 62.9997 31.5545 62.9409 31.558C62.3575 31.7547 61.7479 31.8585 61.1336 31.8655Z" fill="#1D2130"/>
<path d="M76.1153 30.134C74.7771 31.2631 73.0955 31.8808 71.3596 31.8808C69.6236 31.8808 67.9419 31.2631 66.6037 30.134C65.4275 28.9213 64.7676 27.2835 64.7676 25.5767C64.7676 23.8698 65.4275 22.232 66.6037 21.0194C67.9446 19.8962 69.6252 19.2822 71.3596 19.2822C73.0938 19.2822 74.7746 19.8962 76.1153 21.0194C77.2644 22.2433 77.906 23.8731 77.906 25.5687C77.906 27.2642 77.2644 28.894 76.1153 30.1178V30.134ZM69.1085 27.9969C69.7294 28.5715 70.5374 28.8897 71.3754 28.8897C72.2133 28.8897 73.0214 28.5715 73.6423 27.9969C74.2044 27.3371 74.514 26.4918 74.514 25.6172C74.514 24.7425 74.2044 23.8973 73.6423 23.2373C73.0214 22.6629 72.2133 22.3447 71.3754 22.3447C70.5374 22.3447 69.7294 22.6629 69.1085 23.2373C68.5463 23.8973 68.2368 24.7425 68.2368 25.6172C68.2368 26.4918 68.5463 27.3371 69.1085 27.9969Z" fill="#1D2130"/>
<path d="M92.5701 19.6903C92.8713 19.6903 93.014 19.8522 93.014 20.1598V31.7674C93.0416 32.5509 92.898 33.3308 92.5937 34.0505C92.2894 34.7703 91.8317 35.4116 91.2543 35.9281C89.9725 37.0443 88.324 37.6228 86.6411 37.547C85.121 37.6016 83.6213 37.1777 82.3451 36.3328C81.8 35.9673 81.3344 35.4913 80.9772 34.9343C80.6199 34.3774 80.3786 33.7513 80.2683 33.095C80.2683 32.7712 80.2683 32.6255 80.6963 32.6255H83.3596C83.4727 32.6295 83.5822 32.6667 83.675 32.7327C83.7678 32.7988 83.8401 32.8909 83.8828 32.9979C84.0555 33.4896 84.3998 33.8989 84.8497 34.1473C85.3981 34.4362 86.0084 34.5808 86.6253 34.5682C86.9975 34.5891 87.3701 34.5339 87.7212 34.406C88.0723 34.2781 88.395 34.0802 88.6703 33.8236C88.9219 33.555 89.1176 33.2374 89.2455 32.8895C89.3737 32.5417 89.4314 32.171 89.4153 31.7998V30.7799C88.4618 31.4962 87.3013 31.8665 86.118 31.8322C85.2898 31.863 84.4641 31.7225 83.6905 31.4193C82.9168 31.1161 82.2112 30.6563 81.6158 30.0676C80.4729 28.8601 79.834 27.2464 79.834 25.567C79.834 23.8876 80.4729 22.2739 81.6158 21.0664C82.2141 20.4829 82.9206 20.0276 83.6937 19.7273C84.467 19.427 85.2912 19.2878 86.118 19.318C87.3354 19.2851 88.5272 19.6794 89.4946 20.435V20.1759C89.4873 20.114 89.4937 20.051 89.5132 19.9918C89.5327 19.9326 89.5649 19.8785 89.6074 19.8336C89.6498 19.7886 89.7016 19.7539 89.7589 19.7319C89.8163 19.7099 89.8775 19.7012 89.9386 19.7065L92.5701 19.6903ZM86.4192 28.9505C86.8277 28.9634 87.2338 28.8846 87.6091 28.7196C87.9844 28.5545 88.3196 28.3073 88.591 27.9954C89.1181 27.3003 89.404 26.4461 89.404 25.567C89.404 24.6879 89.1181 23.8337 88.591 23.1387C88.3205 22.8309 87.9874 22.5874 87.6149 22.4252C87.2425 22.263 86.8397 22.186 86.435 22.1997C86.0219 22.1864 85.6109 22.265 85.2304 22.4299C84.85 22.5948 84.5091 22.8421 84.2315 23.1548C83.6476 23.8197 83.3405 24.6908 83.3755 25.5832C83.3468 26.4668 83.647 27.3287 84.2156 27.9954C84.4939 28.3072 84.8349 28.554 85.2152 28.7189C85.5955 28.8837 86.0062 28.9628 86.4192 28.9505Z" fill="#1D2130"/>
<path d="M106.695 30.133C105.354 31.2562 103.673 31.8701 101.939 31.8701C100.204 31.8701 98.5237 31.2562 97.1829 30.133C96.0327 28.9064 95.3906 27.2739 95.3906 25.5757C95.3906 23.8775 96.0327 22.2449 97.1829 21.0184C98.5249 19.898 100.205 19.2859 101.939 19.2859C103.672 19.2859 105.352 19.898 106.695 21.0184C107.844 22.2421 108.485 23.8721 108.485 25.5676C108.485 27.2631 107.844 28.893 106.695 30.1167V30.133ZM99.6717 27.996C99.9757 28.2912 100.334 28.5219 100.726 28.6748C101.118 28.8276 101.535 28.8996 101.954 28.8864C102.371 28.8974 102.786 28.8245 103.175 28.6717C103.564 28.5188 103.919 28.2892 104.222 27.996C104.774 27.3316 105.078 26.4881 105.078 25.6161C105.078 24.7442 104.774 23.9007 104.222 23.2363C103.919 22.9431 103.564 22.7135 103.175 22.5606C102.786 22.4078 102.371 22.3349 101.954 22.3459C101.535 22.3327 101.118 22.4047 100.726 22.5575C100.334 22.7104 99.9757 22.9411 99.6717 23.2363C99.1189 23.9007 98.8153 24.7442 98.8153 25.6161C98.8153 26.4881 99.1189 27.3316 99.6717 27.996Z" fill="#1D2130"/>
<path d="M114.21 16.9391C113.791 17.3137 113.253 17.5202 112.696 17.5202C112.139 17.5202 111.601 17.3137 111.182 16.9391C110.992 16.756 110.84 16.5351 110.737 16.2902C110.633 16.0452 110.58 15.7812 110.58 15.5145C110.58 15.2477 110.633 14.9837 110.737 14.7388C110.84 14.4937 110.992 14.2729 111.182 14.0898C111.605 13.7246 112.141 13.5242 112.696 13.5242C113.25 13.5242 113.786 13.7246 114.21 14.0898C114.4 14.2729 114.551 14.4937 114.654 14.7388C114.758 14.9837 114.811 15.2477 114.811 15.5145C114.811 15.7812 114.758 16.0452 114.654 16.2902C114.551 16.5351 114.4 16.756 114.21 16.9391ZM114.543 31.8656C113.6 31.9128 112.669 31.6395 111.895 31.0884C111.577 30.8407 111.322 30.5189 111.152 30.15C110.98 29.7811 110.898 29.3757 110.912 28.9677V20.1608C110.904 20.0972 110.911 20.0327 110.932 19.9722C110.952 19.9117 110.985 19.8567 111.03 19.8114C111.074 19.7661 111.128 19.7318 111.187 19.7109C111.247 19.6901 111.31 19.6834 111.372 19.6913H114.035C114.336 19.6913 114.479 19.8532 114.479 20.1608V27.8021C114.479 28.4172 114.749 28.7248 115.288 28.7248C115.528 28.7337 115.768 28.7064 116.001 28.6439C116.318 28.6439 116.492 28.7411 116.508 29.0324L116.746 31.0562C116.757 31.1151 116.756 31.1759 116.743 31.2345C116.729 31.2929 116.704 31.3479 116.668 31.3954C116.632 31.443 116.586 31.4821 116.534 31.5101C116.482 31.5382 116.424 31.5545 116.366 31.558C115.777 31.7559 115.162 31.8597 114.543 31.8656Z" fill="#1D2130"/>
<path d="M126.544 19.3024C127.377 19.2689 128.206 19.4064 128.985 19.7067C129.765 20.0071 130.476 20.4642 131.079 21.0509C132.2 22.2796 132.823 23.8965 132.823 25.5758C132.823 27.2551 132.2 28.8721 131.079 30.1007C130.479 30.6926 129.769 31.1542 128.989 31.4575C128.21 31.7607 127.378 31.8996 126.544 31.8653C125.358 31.8922 124.194 31.5228 123.231 30.813V36.6573C123.231 36.9649 123.073 37.1107 122.772 37.1107H120.108C120.048 37.1222 119.985 37.1185 119.926 37.0998C119.867 37.0811 119.813 37.0481 119.769 37.0034C119.726 36.9588 119.693 36.904 119.675 36.8436C119.657 36.7833 119.653 36.7193 119.665 36.6573V23.3822C119.683 23.2524 119.672 23.1198 119.631 22.9952C119.591 22.8707 119.523 22.7574 119.432 22.6646C119.341 22.5718 119.23 22.502 119.108 22.4607C118.986 22.4194 118.856 22.408 118.729 22.4269H118.206C117.857 22.4269 117.683 22.2975 117.683 22.0384V20.1281C117.675 20.0099 117.706 19.8923 117.773 19.7952C117.839 19.6979 117.936 19.6269 118.048 19.5939C118.596 19.3903 119.176 19.2916 119.76 19.3024C120.341 19.2499 120.925 19.3758 121.437 19.6642C121.948 19.9527 122.363 20.3904 122.629 20.9214C123.14 20.3939 123.75 19.9783 124.423 19.7C125.097 19.4215 125.819 19.2863 126.544 19.3024ZM124.072 27.9961C124.354 28.2978 124.694 28.5379 125.07 28.7019C125.446 28.8659 125.85 28.9504 126.259 28.9504C126.669 28.9504 127.073 28.8659 127.449 28.7019C127.824 28.5379 128.165 28.2978 128.447 27.9961C129.043 27.3179 129.355 26.4293 129.319 25.5192C129.36 24.6082 129.046 23.7176 128.447 23.0422C128.165 22.7405 127.824 22.5003 127.449 22.3363C127.073 22.1723 126.669 22.0878 126.259 22.0878C125.85 22.0878 125.446 22.1723 125.07 22.3363C124.694 22.5003 124.354 22.7405 124.072 23.0422C123.495 23.7295 123.195 24.6147 123.231 25.5192C123.199 26.4229 123.499 27.3063 124.072 27.9961Z" fill="#1D2130"/>
<path d="M140.303 31.8645C138.88 31.9242 137.469 31.5766 136.228 30.8608C135.731 30.5548 135.308 30.1383 134.989 29.6422C134.671 29.1462 134.466 28.5833 134.39 27.9953C134.39 27.6715 134.501 27.5097 134.849 27.5097H137.18C137.291 27.5141 137.399 27.5497 137.491 27.6125C137.584 27.6753 137.656 27.763 137.703 27.8658C138.036 28.74 138.907 29.1771 140.303 29.1771C140.79 29.1999 141.274 29.0997 141.715 28.8857C141.865 28.8157 141.996 28.705 142.091 28.5653C142.185 28.4255 142.242 28.2622 142.253 28.0925C142.253 27.6715 142 27.3801 141.492 27.1858C140.891 26.9813 140.268 26.8455 139.637 26.7811C138.89 26.6947 138.149 26.5595 137.418 26.3764C136.707 26.2121 136.061 25.8343 135.563 25.2917C135.27 24.9228 135.054 24.4964 134.928 24.0386C134.803 23.5809 134.771 23.1018 134.836 22.6311C134.9 22.1604 135.058 21.7081 135.3 21.3024C135.543 20.8968 135.864 20.5464 136.245 20.273C137.388 19.5297 138.728 19.1676 140.08 19.2369C141.392 19.1917 142.688 19.5226 143.822 20.1921C144.279 20.4566 144.674 20.8222 144.975 21.2618C145.276 21.7015 145.479 22.2044 145.567 22.7338C145.567 23.0575 145.423 23.2195 145.138 23.2195H142.792C142.693 23.2254 142.595 23.2009 142.51 23.1489C142.425 23.0969 142.358 23.0199 142.316 22.9281C142.159 22.5446 141.864 22.2374 141.492 22.0701C141.071 21.8455 140.603 21.7342 140.128 21.7463C139.663 21.7205 139.2 21.8151 138.781 22.0215C138.634 22.0797 138.507 22.1817 138.416 22.3144C138.326 22.4472 138.276 22.6045 138.274 22.7662C138.284 22.9876 138.364 23.1999 138.5 23.3717C138.637 23.5436 138.825 23.6662 139.034 23.7214C139.643 23.9556 140.276 24.1186 140.921 24.2071C141.663 24.3067 142.398 24.4472 143.125 24.628C143.836 24.7921 144.481 25.1699 144.98 25.7126C145.246 26.0116 145.452 26.3615 145.585 26.7422C145.719 27.1228 145.776 27.5268 145.756 27.9306C145.77 28.4902 145.642 29.0439 145.383 29.5375C145.124 30.0313 144.745 30.4481 144.282 30.7475C143.097 31.524 141.709 31.9137 140.303 31.8645Z" fill="#1D2130"/>
<path d="M162.514 31.0561C162.522 31.1135 162.52 31.1723 162.507 31.2288C162.494 31.2854 162.468 31.3385 162.435 31.3854C162.401 31.4321 162.358 31.4714 162.309 31.5011C162.26 31.5306 162.206 31.55 162.149 31.5579C161.57 31.7509 160.966 31.8545 160.358 31.8655C159.756 31.9292 159.146 31.8331 158.591 31.5863C158.036 31.3395 157.553 30.9506 157.187 30.4571C156.068 31.4402 154.62 31.9447 153.145 31.8655C152.46 31.8977 151.776 31.7833 151.137 31.5296C150.499 31.2758 149.919 30.8884 149.435 30.3923C148.955 29.8723 148.582 29.2589 148.34 28.5884C148.098 27.918 147.991 27.2045 148.025 26.4906V20.1607C148.025 19.8531 148.167 19.6912 148.468 19.6912H151.132C151.432 19.6912 151.575 19.8531 151.575 20.1607V26.005C151.546 26.7331 151.79 27.4452 152.257 27.9963C152.49 28.2487 152.774 28.4473 153.088 28.5785C153.403 28.7097 153.741 28.7706 154.08 28.7572C154.428 28.7727 154.774 28.7177 155.101 28.5955C155.427 28.4732 155.728 28.2861 155.983 28.0448C156.224 27.7906 156.412 27.4885 156.535 27.1571C156.657 26.8257 156.712 26.4722 156.696 26.1184V20.1607C156.696 19.8531 156.838 19.6912 157.139 19.6912H159.835C160.136 19.6912 160.278 19.8531 160.278 20.1607V27.7859C160.278 28.4172 160.548 28.7248 161.072 28.7248C161.317 28.7345 161.563 28.7073 161.8 28.6438C161.861 28.6266 161.923 28.6237 161.985 28.6349C162.046 28.6461 162.104 28.6713 162.154 28.7087C162.205 28.7461 162.246 28.7946 162.275 28.8508C162.305 28.9068 162.321 28.9688 162.324 29.0325L162.514 31.0561Z" fill="#1D2130"/>
<path d="M187.704 31.0564C187.718 31.1144 187.719 31.1749 187.708 31.2335C187.696 31.292 187.672 31.3473 187.637 31.3953C187.602 31.4433 187.558 31.4828 187.507 31.5109C187.455 31.5391 187.397 31.5553 187.34 31.5584C186.751 31.754 186.135 31.8577 185.516 31.8659C184.574 31.9155 183.642 31.6421 182.868 31.0888C182.534 30.8518 182.263 30.5342 182.077 30.1643C181.892 29.7944 181.799 29.3835 181.807 28.9681V25.1635C181.84 24.4376 181.602 23.7259 181.14 23.1723C180.918 22.9193 180.644 22.7198 180.336 22.5882C180.03 22.4566 179.698 22.3963 179.365 22.4114C179.065 22.3998 178.766 22.458 178.492 22.5813C178.217 22.7047 177.974 22.8902 177.78 23.1238C177.361 23.6662 177.147 24.3442 177.177 25.0341V31.0079C177.177 31.3155 177.034 31.4773 176.734 31.4773H174.054C173.992 31.4852 173.929 31.4785 173.869 31.4577C173.81 31.437 173.756 31.4025 173.712 31.3573C173.668 31.3121 173.634 31.257 173.614 31.1964C173.593 31.1359 173.587 31.0714 173.594 31.0079V25.1635C173.629 24.4456 173.41 23.7388 172.976 23.1723C172.783 22.9344 172.54 22.7428 172.267 22.6113C171.993 22.4798 171.694 22.4115 171.391 22.4114C171.067 22.3981 170.746 22.4546 170.444 22.5773C170.144 22.7002 169.873 22.8864 169.648 23.1238C169.194 23.649 168.961 24.3349 168.997 25.0341V31.0079C169.005 31.0714 168.999 31.1359 168.978 31.1964C168.957 31.257 168.924 31.3121 168.879 31.3573C168.835 31.4025 168.781 31.437 168.722 31.4577C168.663 31.4785 168.6 31.4852 168.538 31.4773H165.954C165.653 31.4773 165.509 31.3155 165.509 31.0079V23.3828C165.528 23.253 165.517 23.1204 165.477 22.9958C165.437 22.8713 165.367 22.758 165.277 22.6652C165.187 22.5724 165.075 22.5026 164.953 22.4613C164.831 22.4201 164.702 22.4086 164.575 22.4277H164.051C163.702 22.4277 163.527 22.2981 163.527 22.039V20.1287C163.52 20.0105 163.551 19.893 163.618 19.7958C163.684 19.6986 163.781 19.6275 163.893 19.5945C164.441 19.3909 165.021 19.2922 165.605 19.303C166.165 19.2544 166.726 19.3683 167.226 19.6319C167.725 19.8954 168.142 20.2977 168.427 20.7924C168.961 20.2748 169.595 19.8754 170.288 19.6192C170.98 19.3629 171.718 19.2553 172.454 19.303C173.167 19.2675 173.88 19.4043 174.532 19.7025C175.185 20.0006 175.761 20.4517 176.21 21.0191C176.735 20.4368 177.38 19.9808 178.098 19.6841C178.816 19.3873 179.59 19.2571 180.364 19.303C181.056 19.27 181.747 19.3839 182.394 19.6375C183.04 19.891 183.628 20.2788 184.12 20.7763C184.603 21.2951 184.976 21.9084 185.218 22.5791C185.461 23.2499 185.567 23.9639 185.532 24.6779V27.8024C185.532 28.4176 185.801 28.7252 186.308 28.7252C186.555 28.737 186.801 28.7096 187.038 28.6443C187.366 28.6443 187.539 28.7737 187.561 29.0328L187.704 31.0564Z" fill="#1D2130"/>
<path d="M1.81305 17.5872C2.98262 12.7866 5.69133 8.52353 9.50786 5.47688C13.3243 2.43024 18.0294 0.775146 22.8735 0.775146C27.7177 0.775146 32.4226 2.43024 36.2392 5.47688C40.0557 8.52353 42.7645 12.7866 43.9341 17.5872H42.0317C38.8226 17.5389 35.6793 18.5184 33.0431 20.3879C32.891 20.5005 32.7321 20.6032 32.5676 20.6956H32.3456C32.181 20.6032 32.0221 20.5005 31.87 20.3879C29.2106 18.5616 26.0784 17.5863 22.8735 17.5863C19.6687 17.5863 16.5365 18.5616 13.8771 20.3879C13.7249 20.5005 13.5661 20.6032 13.4015 20.6956H13.1795C13.0149 20.6032 12.8561 20.5005 12.704 20.3879C10.0678 18.5184 6.92451 17.5389 3.71539 17.5872H1.81305ZM38.6074 27.7379C39.584 26.9612 40.7944 26.5549 42.0317 26.5885H44.584V21.3917H42.0317C39.8522 21.3647 37.7227 22.0575 35.9601 23.3668C34.9681 24.1136 33.7682 24.5165 32.5358 24.5165C31.3036 24.5165 30.1036 24.1136 29.1116 23.3668C27.3043 22.082 25.1549 21.3932 22.9528 21.3932C20.7507 21.3932 18.6013 22.082 16.794 23.3668C15.802 24.1136 14.602 24.5165 13.3698 24.5165C12.1374 24.5165 10.9375 24.1136 9.94556 23.3668C8.16116 22.0407 6.00104 21.3472 3.79465 21.3917H1.16309V26.5885H3.71539C4.95272 26.5549 6.16305 26.9612 7.1396 27.7379C8.94366 29.0236 11.0906 29.7128 13.2905 29.7128C15.4904 29.7128 17.6374 29.0236 19.4415 27.7379C20.4192 26.9636 21.6286 26.5576 22.8656 26.5885C24.1033 26.5522 25.3145 26.9588 26.2898 27.7379C28.0972 29.0226 30.2465 29.7114 32.4486 29.7114C34.6507 29.7114 36.8001 29.0226 38.6074 27.7379ZM38.6074 37.0305C39.584 36.2539 40.7944 35.8475 42.0317 35.8811H44.584V30.6843H42.0317C39.8522 30.6574 37.7227 31.3501 35.9601 32.6594C34.9681 33.4063 33.7682 33.8091 32.5358 33.8091C31.3036 33.8091 30.1036 33.4063 29.1116 32.6594C27.3043 31.3745 25.1549 30.6859 22.9528 30.6859C20.7507 30.6859 18.6013 31.3745 16.794 32.6594C15.802 33.4063 14.602 33.8091 13.3698 33.8091C12.1374 33.8091 10.9375 33.4063 9.94556 32.6594C8.16116 31.3334 6.00104 30.6398 3.79465 30.6843H1.16309V35.8811H3.71539C4.95272 35.8475 6.16305 36.2539 7.1396 37.0305C8.94366 38.3162 11.0906 39.0055 13.2905 39.0055C15.4904 39.0055 17.6374 38.3162 19.4415 37.0305C20.4192 36.2562 21.6286 35.8503 22.8656 35.8811C24.1033 35.8448 25.3145 36.2514 26.2898 37.0305C28.0972 38.3153 30.2465 39.0041 32.4486 39.0041C34.6507 39.0041 36.8001 38.3153 38.6074 37.0305Z" fill="#1D2130"/>
</g>
<defs>
<clipPath id="clip0_968_574">
<rect width="187.141" height="40" fill="white" transform="translate(0.745117)"/>
</clipPath>
</defs>
</svg>
