<svg width="45" height="45" viewBox="0 0 45 45" fill="none" xmlns="http://www.w3.org/2000/svg">
<path fill-rule="evenodd" clip-rule="evenodd" d="M29.7999 17.2771V1.38435C29.3491 1.23222 28.8871 1.09315 28.4242 0.964351C26.5799 0.471551 24.6386 0.199951 22.6319 0.199951C21.7742 0.199951 20.9314 0.253151 20.0998 0.349284C18.066 0.578885 16.1163 1.08662 14.2823 1.82115C14.2823 1.82115 29.3939 16.7227 29.7999 17.2771ZM41.9708 11.2954C42.2106 11.7107 42.4365 12.1335 42.6484 12.5563L31.3662 23.7946C31.4792 23.1198 31.3662 1.93873 31.3662 1.93873C33.1834 2.70593 34.9185 3.727 36.5229 4.9954C37.1781 5.51247 37.8137 6.07153 38.4194 6.67447C39.8372 8.0838 41.0132 9.64527 41.9708 11.2954ZM23.9017 13.8341L12.6224 2.59401C12.1912 2.80867 11.7674 3.03361 11.3549 3.27254C9.69357 4.22361 8.12837 5.39867 6.71437 6.80707C6.10304 7.41281 5.54771 8.04841 5.02971 8.69801C3.75571 10.2959 2.73184 12.0272 1.95997 13.8379C1.95997 13.8379 23.2213 13.7259 23.9017 13.8341ZM17.3381 15.432H1.38553C1.23153 15.8781 1.09526 16.3382 0.968329 16.8012C0.470862 18.6408 0.200195 20.5737 0.200195 22.572C0.200195 23.426 0.253395 24.2669 0.350462 25.0938C0.580062 27.1229 1.0878 29.0652 1.8298 30.887C1.8298 30.887 16.7799 15.8296 17.3381 15.432ZM2.53712 32.5316L13.8127 21.2915C13.7044 21.9655 13.8174 42.8111 13.8192 43.1488L13.8192 43.1494L13.8192 43.1499L13.8192 43.1502L13.8193 43.153C11.9983 42.3867 10.267 41.3703 8.66259 40.0991C8.00739 39.5783 7.37086 39.0239 6.76606 38.42C5.34739 37.0098 4.16765 35.4483 3.21472 33.7954C2.97672 33.3791 2.74619 32.9619 2.53712 32.5316ZM34.5796 31.485C31.82 33.3317 29.9268 36.3722 29.6388 39.8678L21.1895 31.4499C21.576 31.5145 28.5863 31.5052 34.5796 31.485ZM38.7993 29.7781H27.8594C28.4185 29.3759 43.3714 14.3193 43.3714 14.3193C44.1125 16.144 44.6165 18.0881 44.8489 20.1144C44.945 20.9423 45.0001 21.7841 45.0001 22.6391C45.0001 24.6383 44.7275 26.5656 44.2273 28.4071C44.1022 28.8681 43.9631 29.3283 43.8119 29.7781H42.8019C42.1525 29.661 41.4837 29.5999 40.8006 29.5999C40.1175 29.5999 39.4486 29.661 38.7993 29.7781ZM29.6832 42.1673C29.7481 42.7001 29.8503 43.2213 29.9873 43.7282C28.4292 44.2772 26.7937 44.6575 25.0959 44.8497C24.268 44.9467 23.4234 44.9999 22.5684 44.9999C20.5618 44.9999 18.6232 44.7311 16.7762 44.2299C16.3142 44.1058 15.854 43.9677 15.4014 43.8146V27.9199C15.7332 28.3819 26.0751 38.6036 29.6832 42.1673Z" fill="#6B7CFF"/>
</svg>
