<svg width="72" height="72" viewBox="0 0 72 72" fill="none" xmlns="http://www.w3.org/2000/svg">
<rect width="72" height="72" rx="36" fill="#F4F5F7"/>
<path fill-rule="evenodd" clip-rule="evenodd" d="M45.415 23.7759C45.4152 23.7761 45.4154 23.7762 45.4157 23.7763L43.4432 25.7484C43.4431 25.7483 43.4429 25.7482 43.4428 25.7481L42.3004 26.8905V25.1968C42.3002 25.1967 42.3 25.1966 42.2998 25.1965V24.2999L37.7998 24.2999L36 24.2999L34.1998 24.2999C27.7381 24.2999 22.4998 29.5381 22.4998 35.9999C22.4998 38.9743 23.6097 41.6894 25.438 43.7538L23.5259 45.6658C21.2104 43.1105 19.7998 39.7199 19.7998 35.9999C19.7998 28.047 26.2469 21.5999 34.1998 21.5999H36H37.7998H42.3004H44.1H47.5911L45.415 23.7759Z" fill="url(#paint0_radial_262_168)"/>
<path d="M42.006 39.106L38.8244 37.8676C38.8244 37.8676 38.2174 37.6329 37.982 37.4017C37.8308 37.2527 37.8408 36.9028 37.9748 36.4542C38.1094 36.0057 39.7402 34.1833 39.7402 32.5281C39.7402 29.9721 38.0568 27.8999 35.9818 27.8999C33.9089 27.8999 32.227 29.9728 32.227 32.5281C32.227 34.1142 33.6807 36.0042 33.86 36.3462C34.0392 36.6911 33.9953 37.2138 33.8549 37.3722C33.6425 37.6105 32.8642 37.8489 32.8642 37.8489L29.9957 39.1247C29.3254 39.3652 28.7998 39.9959 28.7998 40.7087V41.0464C28.7998 41.824 29.4312 42.2999 30.2081 42.2999H41.79C42.5662 42.2999 43.1998 41.8233 43.1998 41.0464V40.7087C43.2012 39.9959 42.6756 39.3457 42.006 39.106Z" fill="#1D2130"/>
<path d="M37.8002 47.7C44.2619 47.7 49.5002 42.4617 49.5002 36C49.5002 33.0256 48.3903 30.3104 46.562 28.2461L48.4741 26.334C50.7896 28.8894 52.2002 32.2799 52.2002 36C52.2002 43.9529 45.7531 50.4 37.8002 50.4L24.4082 50.4003L29.7002 45.1083V47.7H37.8002Z" fill="url(#paint1_radial_262_168)"/>
<defs>
<radialGradient id="paint0_radial_262_168" cx="0" cy="0" r="1" gradientUnits="userSpaceOnUse" gradientTransform="translate(6.04244 -38.5651) rotate(60.7856) scale(133.427 436.828)">
<stop offset="0.175497" stop-color="#D798E1"/>
<stop offset="0.275566" stop-color="#9B9FFF"/>
<stop offset="0.49892" stop-color="#AED3FF"/>
<stop offset="0.565292" stop-color="#C9D4EF"/>
<stop offset="0.656871" stop-color="#CACFFA"/>
</radialGradient>
<radialGradient id="paint1_radial_262_168" cx="0" cy="0" r="1" gradientUnits="userSpaceOnUse" gradientTransform="translate(10.6505 -33.8317) rotate(60.7853) scale(133.429 436.838)">
<stop offset="0.175497" stop-color="#D798E1"/>
<stop offset="0.275566" stop-color="#9B9FFF"/>
<stop offset="0.49892" stop-color="#AED3FF"/>
<stop offset="0.565292" stop-color="#C9D4EF"/>
<stop offset="0.656871" stop-color="#CACFFA"/>
</radialGradient>
</defs>
</svg>
